<svg width="48" height="48" viewBox="0 0 48 48" fill="none" xmlns="http://www.w3.org/2000/svg">
<path d="M40 36V40H8V36H40ZM40 8V12H8V8H40Z" fill="#0AA0B0"/>
<path d="M38.828 21.1719L32.242 14.5859L32.23 14.5999C31.4828 15.3458 31.0629 16.3582 31.0629 17.4139C31.0629 18.4697 31.4828 19.4821 32.23 20.2279L34 21.9999H20V25.9999H34L32.23 27.7719C31.4828 28.5178 31.0629 29.5302 31.0629 30.5859C31.0629 31.6417 31.4828 32.6541 32.23 33.3999L32.242 33.4139L38.828 26.8279C40.3895 25.2659 40.3895 22.7339 38.828 21.1719Z" fill="#FF444F"/>
</svg>
