<svg width="55" height="20" viewBox="0 0 55 20" fill="none" xmlns="http://www.w3.org/2000/svg">
<path fill-rule="evenodd" clip-rule="evenodd" d="M8.82185 1.10769L15.029 9.50138H17.979L20.9376 17.2073H23.2061L27.4654 14.4969L30.8067 10.0417L33.2744 9.02058L36.1719 10.4371L39.2206 6.96295L42.1524 9.32264L44.5154 7.64369H47.9274L50.6489 8.94259L52.8421 6.74941L53.8395 7.7468L50.9412 10.645L47.6081 9.05421H44.9654L42.0994 11.0906L39.3892 8.90931L36.5209 12.1778L33.2262 10.5671L31.7032 11.1972L28.4395 15.5488L23.6168 18.6178H19.9682L17.0097 10.9119H14.3178L8.41568 2.93071L6.53981 3.94481L4.08004 7.12816H0.5V5.71763H3.38741L5.60629 2.84603L8.82185 1.10769Z" fill="black"/>
<path d="M10.0636 2.53489C10.0636 3.38987 9.37051 4.08297 8.51553 4.08297C7.66055 4.08297 6.96745 3.38987 6.96745 2.53489C6.96745 1.67991 7.66055 0.986816 8.51553 0.986816C9.37051 0.986816 10.0636 1.67991 10.0636 2.53489Z" fill="#0000F0"/>
<path d="M24.1682 17.4656C24.1682 18.3205 23.4751 19.0136 22.6202 19.0136C21.7652 19.0136 21.0721 18.3205 21.0721 17.4656C21.0721 16.6106 21.7652 15.9175 22.6202 15.9175C23.4751 15.9175 24.1682 16.6106 24.1682 17.4656Z" fill="#F00201"/>
<path d="M54.5104 7.17901C54.5104 8.03399 53.8173 8.72709 52.9624 8.72709C52.1074 8.72709 51.4143 8.03399 51.4143 7.17901C51.4143 6.32403 52.1074 5.63094 52.9624 5.63094C53.8173 5.63094 54.5104 6.32403 54.5104 7.17901Z" fill="#02F100"/>
</svg>
